<?xml version="1.0" encoding="UTF-8" standalone="no"?>
<!DOCTYPE svg PUBLIC "-//W3C//DTD SVG 1.1//EN"
 "http://www.w3.org/Graphics/SVG/1.1/DTD/svg11.dtd">
<!-- Generated by graphviz version 2.38.0 (20140413.2041)
 -->
<!-- Title: %3 Pages: 1 -->
<svg width="1688pt" height="558pt"
 viewBox="0.00 0.00 1687.90 558.00" xmlns="http://www.w3.org/2000/svg" xmlns:xlink="http://www.w3.org/1999/xlink">
<g id="graph0" class="graph" transform="scale(1 1) rotate(0) translate(4 554)">
<title>%3</title>
<polygon fill="white" stroke="none" points="-4,4 -4,-554 1683.9,-554 1683.9,4 -4,4"/>
<!-- A1 -->
<g id="node1" class="node"><title>A1</title>
<ellipse fill="#76ff03" stroke="black" stroke-width="0" cx="1056.95" cy="-101" rx="27" ry="18"/>
<text text-anchor="middle" x="1056.95" y="-97.3" font-family="Helvetica,sans-Serif" font-size="14.00" fill="#1a237e">A1</text>
</g>
<!-- A1&#45;&gt;A1 -->
<g id="edge1" class="edge"><title>A1&#45;&gt;A1</title>
<path fill="none" stroke="#90caf9" stroke-width="1.5" d="M1081.94,-108.41C1092.72,-109.017 1101.95,-106.547 1101.95,-101 1101.95,-96.8398 1096.76,-94.4104 1089.61,-93.7116"/>
<polygon fill="#90caf9" stroke="#90caf9" stroke-width="1.5" points="1089.48,-91.0842 1081.94,-93.5897 1089.39,-96.3336 1089.48,-91.0842"/>
<text text-anchor="middle" x="1116.45" y="-97.3" font-family="Helvetica,sans-Serif" font-size="14.00">0.50</text>
</g>
<!-- A15 -->
<g id="node2" class="node"><title>A15</title>
<ellipse fill="#76ff03" stroke="black" stroke-width="0" cx="1049.95" cy="-18" rx="27.8951" ry="18"/>
<text text-anchor="middle" x="1049.95" y="-14.3" font-family="Helvetica,sans-Serif" font-size="14.00" fill="#1a237e">A15</text>
</g>
<!-- A1&#45;&gt;A15 -->
<g id="edge2" class="edge"><title>A1&#45;&gt;A15</title>
<path fill="none" stroke="#90caf9" stroke-width="0.75" d="M1040.63,-86.319C1034.84,-80.4286 1029,-73.0452 1025.95,-65 1022.44,-55.7615 1026.35,-45.9949 1031.96,-37.8489"/>
<polygon fill="#90caf9" stroke="#90caf9" stroke-width="0.75" points="1033.61,-38.5547 1035.21,-33.5036 1030.81,-36.4566 1033.61,-38.5547"/>
<text text-anchor="middle" x="1039.95" y="-57" font-family="Helvetica,sans-Serif" font-size="10.00"> &#160;&#160;0.05</text>
</g>
<!-- A15&#45;&gt;A1 -->
<g id="edge18" class="edge"><title>A15&#45;&gt;A1</title>
<path fill="none" stroke="#90caf9" stroke-width="0.75" d="M1052.07,-36.0729C1052.73,-41.7683 1053.42,-48.1522 1053.95,-54 1054.64,-61.7718 1055.25,-70.2961 1055.72,-77.8725"/>
<polygon fill="#90caf9" stroke="#90caf9" stroke-width="0.75" points="1053.98,-78.0615 1056.03,-82.9453 1057.47,-77.8477 1053.98,-78.0615"/>
<text text-anchor="middle" x="1068.95" y="-57" font-family="Helvetica,sans-Serif" font-size="10.00"> &#160;&#160;0.44</text>
</g>
<!-- A15&#45;&gt;A15 -->
<g id="edge17" class="edge"><title>A15&#45;&gt;A15</title>
<path fill="none" stroke="#90caf9" stroke-width="1.5" d="M1075.46,-25.4103C1086.47,-26.017 1095.9,-23.5469 1095.9,-18 1095.9,-13.8398 1090.59,-11.4104 1083.3,-10.7116"/>
<polygon fill="#90caf9" stroke="#90caf9" stroke-width="1.5" points="1083,-8.08177 1075.46,-10.5897 1082.92,-13.3311 1083,-8.08177"/>
<text text-anchor="middle" x="1110.4" y="-14.3" font-family="Helvetica,sans-Serif" font-size="14.00">0.56</text>
</g>
<!-- A10 -->
<g id="node3" class="node"><title>A10</title>
<ellipse fill="#76ff03" stroke="black" stroke-width="0" cx="1126.95" cy="-449" rx="27.8951" ry="18"/>
<text text-anchor="middle" x="1126.95" y="-445.3" font-family="Helvetica,sans-Serif" font-size="14.00" fill="#1a237e">A10</text>
</g>
<!-- A10&#45;&gt;A1 -->
<g id="edge3" class="edge"><title>A10&#45;&gt;A1</title>
<path fill="none" stroke="#90caf9" stroke-width="1.5" d="M1123.48,-430.842C1112.02,-374.236 1075.41,-193.246 1061.96,-126.783"/>
<polygon fill="#90caf9" stroke="#90caf9" stroke-width="1.5" points="1064.5,-126.092 1060.44,-119.262 1059.35,-127.133 1064.5,-126.092"/>
<text text-anchor="middle" x="1110.45" y="-271.3" font-family="Helvetica,sans-Serif" font-size="14.00">0.50</text>
</g>
<!-- A10&#45;&gt;A10 -->
<g id="edge5" class="edge"><title>A10&#45;&gt;A10</title>
<path fill="none" stroke="#cfd8dc" stroke-width="1.8" d="M1152.46,-456.41C1163.47,-457.017 1172.9,-454.547 1172.9,-449 1172.9,-444.32 1166.19,-441.83 1157.48,-441.531"/>
<polygon fill="#cfd8dc" stroke="#cfd8dc" stroke-width="1.8" points="1157.44,-439.781 1152.46,-441.59 1157.48,-443.281 1157.44,-439.781"/>
<text text-anchor="middle" x="1186.9" y="-446.5" font-family="Helvetica,sans-Serif" font-size="10.00"> &#160;&#160;0.00</text>
</g>
<!-- A6 -->
<g id="node4" class="node"><title>A6</title>
<ellipse fill="#76ff03" stroke="black" stroke-width="0" cx="1265.95" cy="-362" rx="27" ry="18"/>
<text text-anchor="middle" x="1265.95" y="-358.3" font-family="Helvetica,sans-Serif" font-size="14.00" fill="#1a237e">A6</text>
</g>
<!-- A10&#45;&gt;A6 -->
<g id="edge4" class="edge"><title>A10&#45;&gt;A6</title>
<path fill="none" stroke="#90caf9" stroke-width="0.75" d="M1146.57,-436.002C1171.61,-420.688 1214.92,-394.207 1241.91,-377.698"/>
<polygon fill="#90caf9" stroke="#90caf9" stroke-width="0.75" points="1243.07,-379.039 1246.43,-374.937 1241.25,-376.053 1243.07,-379.039"/>
<text text-anchor="middle" x="1218.95" y="-403" font-family="Helvetica,sans-Serif" font-size="10.00"> &#160;&#160;0.50</text>
</g>
<!-- A6&#45;&gt;A6 -->
<g id="edge67" class="edge"><title>A6&#45;&gt;A6</title>
<path fill="none" stroke="#cfd8dc" stroke-width="1.8" d="M1290.48,-369.752C1301.46,-370.49 1310.95,-367.906 1310.95,-362 1310.95,-357.017 1304.19,-354.398 1295.49,-354.145"/>
<polygon fill="#cfd8dc" stroke="#cfd8dc" stroke-width="1.8" points="1295.44,-352.396 1290.48,-354.248 1295.51,-355.895 1295.44,-352.396"/>
<text text-anchor="middle" x="1324.95" y="-359.5" font-family="Helvetica,sans-Serif" font-size="10.00"> &#160;&#160;0.00</text>
</g>
<!-- A11 -->
<g id="node5" class="node"><title>A11</title>
<ellipse fill="#76ff03" stroke="black" stroke-width="0" cx="1190.95" cy="-275" rx="27.8951" ry="18"/>
<text text-anchor="middle" x="1190.95" y="-271.3" font-family="Helvetica,sans-Serif" font-size="14.00" fill="#1a237e">A11</text>
</g>
<!-- A6&#45;&gt;A11 -->
<g id="edge65" class="edge"><title>A6&#45;&gt;A11</title>
<path fill="none" stroke="#90caf9" stroke-width="1.5" d="M1252.88,-346.194C1240.81,-332.505 1222.74,-312.027 1209.23,-296.717"/>
<polygon fill="#90caf9" stroke="#90caf9" stroke-width="1.5" points="1211.04,-294.808 1204.11,-290.921 1207.11,-298.282 1211.04,-294.808"/>
<text text-anchor="middle" x="1247.45" y="-314.8" font-family="Helvetica,sans-Serif" font-size="14.00">0.33</text>
</g>
<!-- A20 -->
<g id="node18" class="node"><title>A20</title>
<ellipse fill="#76ff03" stroke="black" stroke-width="0" cx="1310.95" cy="-275" rx="27.8951" ry="18"/>
<text text-anchor="middle" x="1310.95" y="-271.3" font-family="Helvetica,sans-Serif" font-size="14.00" fill="#1a237e">A20</text>
</g>
<!-- A6&#45;&gt;A20 -->
<g id="edge66" class="edge"><title>A6&#45;&gt;A20</title>
<path fill="none" stroke="#90caf9" stroke-width="0.75" d="M1274.62,-344.611C1281.78,-331.088 1291.99,-311.807 1299.76,-297.126"/>
<polygon fill="#90caf9" stroke="#90caf9" stroke-width="0.75" points="1301.5,-297.576 1302.3,-292.339 1298.41,-295.939 1301.5,-297.576"/>
<text text-anchor="middle" x="1305.95" y="-316" font-family="Helvetica,sans-Serif" font-size="10.00"> &#160;&#160;0.17</text>
</g>
<!-- A11&#45;&gt;A1 -->
<g id="edge6" class="edge"><title>A11&#45;&gt;A1</title>
<path fill="none" stroke="#90caf9" stroke-width="1.5" d="M1172.59,-261.322C1155.36,-248.755 1129.66,-228.212 1111.95,-206 1092.04,-181.038 1075.93,-147.78 1066.41,-125.667"/>
<polygon fill="#90caf9" stroke="#90caf9" stroke-width="1.5" points="1068.78,-124.513 1063.44,-118.624 1063.94,-126.554 1068.78,-124.513"/>
<text text-anchor="middle" x="1126.45" y="-184.3" font-family="Helvetica,sans-Serif" font-size="14.00">0.33</text>
</g>
<!-- A11&#45;&gt;A11 -->
<g id="edge8" class="edge"><title>A11&#45;&gt;A11</title>
<path fill="none" stroke="#cfd8dc" stroke-width="1.8" d="M1216.46,-282.781C1227.47,-283.418 1236.9,-280.824 1236.9,-275 1236.9,-270.086 1230.19,-267.472 1221.48,-267.157"/>
<polygon fill="#cfd8dc" stroke="#cfd8dc" stroke-width="1.8" points="1221.44,-265.407 1216.46,-267.219 1221.48,-268.907 1221.44,-265.407"/>
<text text-anchor="middle" x="1250.9" y="-272.5" font-family="Helvetica,sans-Serif" font-size="10.00"> &#160;&#160;0.00</text>
</g>
<!-- A7 -->
<g id="node6" class="node"><title>A7</title>
<ellipse fill="#76ff03" stroke="black" stroke-width="0" cx="1176.95" cy="-188" rx="27" ry="18"/>
<text text-anchor="middle" x="1176.95" y="-184.3" font-family="Helvetica,sans-Serif" font-size="14.00" fill="#1a237e">A7</text>
</g>
<!-- A11&#45;&gt;A7 -->
<g id="edge7" class="edge"><title>A11&#45;&gt;A7</title>
<path fill="none" stroke="#90caf9" stroke-width="0.75" d="M1188.11,-256.799C1185.95,-243.665 1182.95,-225.462 1180.61,-211.225"/>
<polygon fill="#90caf9" stroke="#90caf9" stroke-width="0.75" points="1182.32,-210.825 1179.78,-206.175 1178.86,-211.393 1182.32,-210.825"/>
<text text-anchor="middle" x="1198.95" y="-229" font-family="Helvetica,sans-Serif" font-size="10.00"> &#160;&#160;0.33</text>
</g>
<!-- A7&#45;&gt;A1 -->
<g id="edge68" class="edge"><title>A7&#45;&gt;A1</title>
<path fill="none" stroke="#90caf9" stroke-width="1.5" d="M1159.76,-174.058C1146.1,-163.844 1126.44,-149.312 1108.95,-137 1100.3,-130.911 1090.72,-124.4 1082.16,-118.664"/>
<polygon fill="#90caf9" stroke="#90caf9" stroke-width="1.5" points="1083.54,-116.432 1075.85,-114.449 1080.63,-120.798 1083.54,-116.432"/>
<text text-anchor="middle" x="1144.45" y="-140.8" font-family="Helvetica,sans-Serif" font-size="14.00">0.27</text>
</g>
<!-- A7&#45;&gt;A7 -->
<g id="edge70" class="edge"><title>A7&#45;&gt;A7</title>
<path fill="none" stroke="#cfd8dc" stroke-width="1.8" d="M1201.48,-195.752C1212.46,-196.49 1221.95,-193.906 1221.95,-188 1221.95,-183.017 1215.19,-180.398 1206.49,-180.145"/>
<polygon fill="#cfd8dc" stroke="#cfd8dc" stroke-width="1.8" points="1206.44,-178.396 1201.48,-180.248 1206.51,-181.895 1206.44,-178.396"/>
<text text-anchor="middle" x="1235.95" y="-185.5" font-family="Helvetica,sans-Serif" font-size="10.00"> &#160;&#160;0.00</text>
</g>
<!-- A25 -->
<g id="node24" class="node"><title>A25</title>
<ellipse fill="#76ff03" stroke="black" stroke-width="0" cx="1182.95" cy="-101" rx="27.8951" ry="18"/>
<text text-anchor="middle" x="1182.95" y="-97.3" font-family="Helvetica,sans-Serif" font-size="14.00" fill="#1a237e">A25</text>
</g>
<!-- A7&#45;&gt;A25 -->
<g id="edge69" class="edge"><title>A7&#45;&gt;A25</title>
<path fill="none" stroke="#90caf9" stroke-width="0.75" d="M1195.08,-174.452C1202.04,-168.537 1209.22,-160.833 1212.95,-152 1217.7,-140.74 1211.3,-128.978 1203.2,-119.693"/>
<polygon fill="#90caf9" stroke="#90caf9" stroke-width="0.75" points="1204.34,-118.348 1199.66,-115.874 1201.78,-120.729 1204.34,-118.348"/>
<text text-anchor="middle" x="1228.95" y="-142" font-family="Helvetica,sans-Serif" font-size="10.00"> &#160;&#160;0.18</text>
</g>
<!-- A12 -->
<g id="node7" class="node"><title>A12</title>
<ellipse fill="#76ff03" stroke="black" stroke-width="0" cx="626.948" cy="-275" rx="27.8951" ry="18"/>
<text text-anchor="middle" x="626.948" y="-271.3" font-family="Helvetica,sans-Serif" font-size="14.00" fill="#1a237e">A12</text>
</g>
<!-- A12&#45;&gt;A12 -->
<g id="edge11" class="edge"><title>A12&#45;&gt;A12</title>
<path fill="none" stroke="#cfd8dc" stroke-width="1.8" d="M652.463,-282.781C663.47,-283.418 672.895,-280.824 672.895,-275 672.895,-270.086 666.185,-267.472 657.477,-267.157"/>
<polygon fill="#cfd8dc" stroke="#cfd8dc" stroke-width="1.8" points="657.441,-265.407 652.463,-267.219 657.484,-268.907 657.441,-265.407"/>
<text text-anchor="middle" x="686.895" y="-272.5" font-family="Helvetica,sans-Serif" font-size="10.00"> &#160;&#160;0.00</text>
</g>
<!-- A8 -->
<g id="node8" class="node"><title>A8</title>
<ellipse fill="#76ff03" stroke="black" stroke-width="0" cx="453.948" cy="-188" rx="27" ry="18"/>
<text text-anchor="middle" x="453.948" y="-184.3" font-family="Helvetica,sans-Serif" font-size="14.00" fill="#1a237e">A8</text>
</g>
<!-- A12&#45;&gt;A8 -->
<g id="edge9" class="edge"><title>A12&#45;&gt;A8</title>
<path fill="none" stroke="#90caf9" stroke-width="1.5" d="M605.387,-263.407C574.183,-248.075 516.41,-219.69 481.949,-202.758"/>
<polygon fill="#90caf9" stroke="#90caf9" stroke-width="1.5" points="482.856,-200.279 474.967,-199.327 480.541,-204.991 482.856,-200.279"/>
<text text-anchor="middle" x="565.448" y="-227.8" font-family="Helvetica,sans-Serif" font-size="14.00">1.00</text>
</g>
<!-- A9 -->
<g id="node9" class="node"><title>A9</title>
<ellipse fill="#76ff03" stroke="black" stroke-width="0" cx="594.948" cy="-18" rx="27" ry="18"/>
<text text-anchor="middle" x="594.948" y="-14.3" font-family="Helvetica,sans-Serif" font-size="14.00" fill="#1a237e">A9</text>
</g>
<!-- A12&#45;&gt;A9 -->
<g id="edge10" class="edge"><title>A12&#45;&gt;A9</title>
<path fill="none" stroke="#90caf9" stroke-width="0.75" d="M624.798,-256.873C619.174,-212.052 604.023,-91.3185 597.738,-41.2385"/>
<polygon fill="#90caf9" stroke="#90caf9" stroke-width="0.75" points="599.446,-40.7958 597.087,-36.0527 595.974,-41.2317 599.446,-40.7958"/>
<text text-anchor="middle" x="625.948" y="-142" font-family="Helvetica,sans-Serif" font-size="10.00"> &#160;&#160;0.00</text>
</g>
<!-- A8&#45;&gt;A1 -->
<g id="edge71" class="edge"><title>A8&#45;&gt;A1</title>
<path fill="none" stroke="#90caf9" stroke-width="1.5" d="M465.229,-171.319C474.652,-159.593 489.212,-144.366 505.948,-137 553.015,-116.284 908.366,-105.705 1022.07,-102.825"/>
<polygon fill="#90caf9" stroke="#90caf9" stroke-width="1.5" points="1022.4,-105.442 1029.83,-102.631 1022.27,-100.194 1022.4,-105.442"/>
<text text-anchor="middle" x="520.448" y="-140.8" font-family="Helvetica,sans-Serif" font-size="14.00">0.56</text>
</g>
<!-- A8&#45;&gt;A8 -->
<g id="edge73" class="edge"><title>A8&#45;&gt;A8</title>
<path fill="none" stroke="#cfd8dc" stroke-width="1.8" d="M478.48,-195.752C489.455,-196.49 498.948,-193.906 498.948,-188 498.948,-183.017 492.19,-180.398 483.486,-180.145"/>
<polygon fill="#cfd8dc" stroke="#cfd8dc" stroke-width="1.8" points="483.443,-178.396 478.48,-180.248 483.515,-181.895 483.443,-178.396"/>
<text text-anchor="middle" x="512.948" y="-185.5" font-family="Helvetica,sans-Serif" font-size="10.00"> &#160;&#160;0.12</text>
</g>
<!-- A18 -->
<g id="node16" class="node"><title>A18</title>
<ellipse fill="#76ff03" stroke="black" stroke-width="0" cx="453.948" cy="-101" rx="27.8951" ry="18"/>
<text text-anchor="middle" x="453.948" y="-97.3" font-family="Helvetica,sans-Serif" font-size="14.00" fill="#1a237e">A18</text>
</g>
<!-- A8&#45;&gt;A18 -->
<g id="edge72" class="edge"><title>A8&#45;&gt;A18</title>
<path fill="none" stroke="#90caf9" stroke-width="0.75" d="M453.948,-169.799C453.948,-156.665 453.948,-138.462 453.948,-124.225"/>
<polygon fill="#90caf9" stroke="#90caf9" stroke-width="0.75" points="455.698,-124.175 453.948,-119.175 452.198,-124.175 455.698,-124.175"/>
<text text-anchor="middle" x="467.948" y="-142" font-family="Helvetica,sans-Serif" font-size="10.00"> &#160;&#160;0.12</text>
</g>
<!-- A9&#45;&gt;A6 -->
<g id="edge75" class="edge"><title>A9&#45;&gt;A6</title>
<path fill="none" stroke="#90caf9" stroke-width="0.75" d="M621.951,-19.8857C775.418,-25.0924 1530.95,-53.1066 1530.95,-100 1530.95,-276 1530.95,-276 1530.95,-276 1530.95,-324.384 1368.75,-349.088 1298.14,-357.549"/>
<polygon fill="#90caf9" stroke="#90caf9" stroke-width="0.75" points="1297.58,-355.854 1292.82,-358.178 1297.99,-359.33 1297.58,-355.854"/>
<text text-anchor="middle" x="1544.95" y="-185.5" font-family="Helvetica,sans-Serif" font-size="10.00"> &#160;&#160;0.29</text>
</g>
<!-- A9&#45;&gt;A9 -->
<g id="edge74" class="edge"><title>A9&#45;&gt;A9</title>
<path fill="none" stroke="#90caf9" stroke-width="1.5" d="M619.936,-25.4103C630.717,-26.017 639.948,-23.5469 639.948,-18 639.948,-13.8398 634.755,-11.4104 627.611,-10.7116"/>
<polygon fill="#90caf9" stroke="#90caf9" stroke-width="1.5" points="627.477,-8.08424 619.936,-10.5897 627.394,-13.3336 627.477,-8.08424"/>
<text text-anchor="middle" x="654.448" y="-14.3" font-family="Helvetica,sans-Serif" font-size="14.00">0.29</text>
</g>
<!-- A13 -->
<g id="node10" class="node"><title>A13</title>
<ellipse fill="#76ff03" stroke="black" stroke-width="0" cx="1604.95" cy="-188" rx="27.8951" ry="18"/>
<text text-anchor="middle" x="1604.95" y="-184.3" font-family="Helvetica,sans-Serif" font-size="14.00" fill="#1a237e">A13</text>
</g>
<!-- A13&#45;&gt;A1 -->
<g id="edge13" class="edge"><title>A13&#45;&gt;A1</title>
<path fill="none" stroke="#90caf9" stroke-width="0.75" d="M1583.95,-176.107C1559.65,-164.098 1518.07,-145.371 1479.95,-137 1334.75,-105.119 1293.52,-136.987 1145.95,-119 1126.28,-116.602 1104.42,-112.448 1087.28,-108.847"/>
<polygon fill="#90caf9" stroke="#90caf9" stroke-width="0.75" points="1087.38,-107.078 1082.12,-107.749 1086.65,-110.502 1087.38,-107.078"/>
<text text-anchor="middle" x="1538.95" y="-142" font-family="Helvetica,sans-Serif" font-size="10.00"> &#160;&#160;0.30</text>
</g>
<!-- A13&#45;&gt;A13 -->
<g id="edge12" class="edge"><title>A13&#45;&gt;A13</title>
<path fill="none" stroke="#90caf9" stroke-width="1.5" d="M1630.46,-195.781C1641.47,-196.418 1650.9,-193.824 1650.9,-188 1650.9,-183.632 1645.59,-181.081 1638.3,-180.347"/>
<polygon fill="#90caf9" stroke="#90caf9" stroke-width="1.5" points="1638,-177.717 1630.46,-180.219 1637.92,-182.966 1638,-177.717"/>
<text text-anchor="middle" x="1665.4" y="-184.3" font-family="Helvetica,sans-Serif" font-size="14.00">0.40</text>
</g>
<!-- A14 -->
<g id="node11" class="node"><title>A14</title>
<ellipse fill="#76ff03" stroke="black" stroke-width="0" cx="825.948" cy="-362" rx="27.8951" ry="18"/>
<text text-anchor="middle" x="825.948" y="-358.3" font-family="Helvetica,sans-Serif" font-size="14.00" fill="#1a237e">A14</text>
</g>
<!-- A14&#45;&gt;A1 -->
<g id="edge14" class="edge"><title>A14&#45;&gt;A1</title>
<path fill="none" stroke="#90caf9" stroke-width="1.5" d="M825.412,-343.743C825.204,-307.33 829.69,-221.745 872.948,-170 910.475,-125.109 980.506,-109.845 1022.51,-104.661"/>
<polygon fill="#90caf9" stroke="#90caf9" stroke-width="1.5" points="1022.86,-107.263 1030.01,-103.805 1022.26,-102.047 1022.86,-107.263"/>
<text text-anchor="middle" x="857.448" y="-227.8" font-family="Helvetica,sans-Serif" font-size="14.00">0.17</text>
</g>
<!-- A14&#45;&gt;A14 -->
<g id="edge16" class="edge"><title>A14&#45;&gt;A14</title>
<path fill="none" stroke="#cfd8dc" stroke-width="1.8" d="M851.463,-369.781C862.47,-370.418 871.895,-367.824 871.895,-362 871.895,-357.086 865.185,-354.472 856.477,-354.157"/>
<polygon fill="#cfd8dc" stroke="#cfd8dc" stroke-width="1.8" points="856.441,-352.407 851.463,-354.219 856.484,-355.907 856.441,-352.407"/>
<text text-anchor="middle" x="885.895" y="-359.5" font-family="Helvetica,sans-Serif" font-size="10.00"> &#160;&#160;0.00</text>
</g>
<!-- A4 -->
<g id="node12" class="node"><title>A4</title>
<ellipse fill="#76ff03" stroke="black" stroke-width="0" cx="386.948" cy="-275" rx="27" ry="18"/>
<text text-anchor="middle" x="386.948" y="-271.3" font-family="Helvetica,sans-Serif" font-size="14.00" fill="#1a237e">A4</text>
</g>
<!-- A14&#45;&gt;A4 -->
<g id="edge15" class="edge"><title>A14&#45;&gt;A4</title>
<path fill="none" stroke="#90caf9" stroke-width="0.75" d="M799.129,-356.003C739.765,-344.915 592.782,-317.31 469.948,-293 452.576,-289.562 433.187,-285.598 417.52,-282.363"/>
<polygon fill="#90caf9" stroke="#90caf9" stroke-width="0.75" points="417.609,-280.594 412.358,-281.296 416.9,-284.022 417.609,-280.594"/>
<text text-anchor="middle" x="649.948" y="-316" font-family="Helvetica,sans-Serif" font-size="10.00"> &#160;&#160;0.17</text>
</g>
<!-- A4&#45;&gt;A8 -->
<g id="edge61" class="edge"><title>A4&#45;&gt;A8</title>
<path fill="none" stroke="#90caf9" stroke-width="0.75" d="M398.926,-258.804C410.004,-244.749 426.528,-223.786 438.576,-208.501"/>
<polygon fill="#90caf9" stroke="#90caf9" stroke-width="0.75" points="440.126,-209.361 441.847,-204.351 437.377,-207.195 440.126,-209.361"/>
<text text-anchor="middle" x="438.948" y="-229" font-family="Helvetica,sans-Serif" font-size="10.00"> &#160;&#160;0.33</text>
</g>
<!-- A4&#45;&gt;A4 -->
<g id="edge60" class="edge"><title>A4&#45;&gt;A4</title>
<path fill="none" stroke="#90caf9" stroke-width="1.5" d="M411.48,-282.752C422.455,-283.49 431.948,-280.906 431.948,-275 431.948,-270.57 426.608,-268.009 419.308,-267.317"/>
<polygon fill="#90caf9" stroke="#90caf9" stroke-width="1.5" points="419.003,-264.69 411.48,-267.248 418.956,-269.939 419.003,-264.69"/>
<text text-anchor="middle" x="446.448" y="-271.3" font-family="Helvetica,sans-Serif" font-size="14.00">0.50</text>
</g>
<!-- A16 -->
<g id="node13" class="node"><title>A16</title>
<ellipse fill="#76ff03" stroke="black" stroke-width="0" cx="79.9475" cy="-362" rx="27.8951" ry="18"/>
<text text-anchor="middle" x="79.9475" y="-358.3" font-family="Helvetica,sans-Serif" font-size="14.00" fill="#1a237e">A16</text>
</g>
<!-- A16&#45;&gt;A16 -->
<g id="edge20" class="edge"><title>A16&#45;&gt;A16</title>
<path fill="none" stroke="#90caf9" stroke-width="0.75" d="M105.463,-369.781C116.47,-370.418 125.895,-367.824 125.895,-362 125.895,-357.086 119.185,-354.472 110.477,-354.157"/>
<polygon fill="#90caf9" stroke="#90caf9" stroke-width="0.75" points="110.441,-352.407 105.463,-354.219 110.484,-355.907 110.441,-352.407"/>
<text text-anchor="middle" x="139.895" y="-359.5" font-family="Helvetica,sans-Serif" font-size="10.00"> &#160;&#160;0.25</text>
</g>
<!-- A26 -->
<g id="node14" class="node"><title>A26</title>
<ellipse fill="#76ff03" stroke="black" stroke-width="0" cx="27.9475" cy="-275" rx="27.8951" ry="18"/>
<text text-anchor="middle" x="27.9475" y="-271.3" font-family="Helvetica,sans-Serif" font-size="14.00" fill="#1a237e">A26</text>
</g>
<!-- A16&#45;&gt;A26 -->
<g id="edge19" class="edge"><title>A16&#45;&gt;A26</title>
<path fill="none" stroke="#90caf9" stroke-width="1.5" d="M57.2397,-351.464C46.6536,-345.741 35.0652,-337.342 28.9475,-326 24.845,-318.394 23.7814,-309.145 24.0138,-300.679"/>
<polygon fill="#90caf9" stroke="#90caf9" stroke-width="1.5" points="26.6324,-300.861 24.5416,-293.195 21.3954,-300.491 26.6324,-300.861"/>
<text text-anchor="middle" x="43.4475" y="-314.8" font-family="Helvetica,sans-Serif" font-size="14.00">0.25</text>
</g>
<!-- A26&#45;&gt;A16 -->
<g id="edge50" class="edge"><title>A26&#45;&gt;A16</title>
<path fill="none" stroke="#90caf9" stroke-width="1.5" d="M42.1238,-290.572C47.5102,-296.585 53.4301,-303.82 57.9475,-311 63.0253,-319.071 67.5081,-328.515 71.0801,-337.009"/>
<polygon fill="#90caf9" stroke="#90caf9" stroke-width="1.5" points="68.7307,-338.201 73.9766,-344.17 73.5977,-336.233 68.7307,-338.201"/>
<text text-anchor="middle" x="80.4475" y="-314.8" font-family="Helvetica,sans-Serif" font-size="14.00">0.50</text>
</g>
<!-- A26&#45;&gt;A26 -->
<g id="edge51" class="edge"><title>A26&#45;&gt;A26</title>
<path fill="none" stroke="#90caf9" stroke-width="0.75" d="M53.4626,-282.781C64.4703,-283.418 73.895,-280.824 73.895,-275 73.895,-270.086 67.1855,-267.472 58.4766,-267.157"/>
<polygon fill="#90caf9" stroke="#90caf9" stroke-width="0.75" points="58.4405,-265.407 53.4626,-267.219 58.4839,-268.907 58.4405,-265.407"/>
<text text-anchor="middle" x="87.895" y="-272.5" font-family="Helvetica,sans-Serif" font-size="10.00"> &#160;&#160;0.50</text>
</g>
<!-- A17 -->
<g id="node15" class="node"><title>A17</title>
<ellipse fill="#76ff03" stroke="black" stroke-width="0" cx="931.948" cy="-449" rx="27.8951" ry="18"/>
<text text-anchor="middle" x="931.948" y="-445.3" font-family="Helvetica,sans-Serif" font-size="14.00" fill="#1a237e">A17</text>
</g>
<!-- A17&#45;&gt;A1 -->
<g id="edge22" class="edge"><title>A17&#45;&gt;A1</title>
<path fill="none" stroke="#90caf9" stroke-width="0.75" d="M953.492,-437.469C977.787,-423.903 1013.95,-397.858 1013.95,-363 1013.95,-363 1013.95,-363 1013.95,-187 1013.95,-162.149 1028.76,-137.186 1041,-120.805"/>
<polygon fill="#90caf9" stroke="#90caf9" stroke-width="0.75" points="1042.39,-121.863 1044.05,-116.83 1039.62,-119.735 1042.39,-121.863"/>
<text text-anchor="middle" x="1027.95" y="-272.5" font-family="Helvetica,sans-Serif" font-size="10.00"> &#160;&#160;0.17</text>
</g>
<!-- A17&#45;&gt;A14 -->
<g id="edge21" class="edge"><title>A17&#45;&gt;A14</title>
<path fill="none" stroke="#90caf9" stroke-width="1.5" d="M914.917,-434.343C896.99,-419.968 868.669,-397.258 848.808,-381.331"/>
<polygon fill="#90caf9" stroke="#90caf9" stroke-width="1.5" points="850.429,-379.267 842.936,-376.623 847.145,-383.363 850.429,-379.267"/>
<text text-anchor="middle" x="900.448" y="-401.8" font-family="Helvetica,sans-Serif" font-size="14.00">0.50</text>
</g>
<!-- A17&#45;&gt;A17 -->
<g id="edge23" class="edge"><title>A17&#45;&gt;A17</title>
<path fill="none" stroke="#cfd8dc" stroke-width="1.8" d="M957.463,-456.41C968.47,-457.017 977.895,-454.547 977.895,-449 977.895,-444.32 971.185,-441.83 962.477,-441.531"/>
<polygon fill="#cfd8dc" stroke="#cfd8dc" stroke-width="1.8" points="962.442,-439.781 957.463,-441.59 962.483,-443.281 962.442,-439.781"/>
<text text-anchor="middle" x="991.895" y="-446.5" font-family="Helvetica,sans-Serif" font-size="10.00"> &#160;&#160;0.00</text>
</g>
<!-- A18&#45;&gt;A8 -->
<g id="edge24" class="edge"><title>A18&#45;&gt;A8</title>
<path fill="none" stroke="#90caf9" stroke-width="1.5" d="M431.143,-111.484C420.533,-117.195 408.952,-125.598 402.948,-137 395.163,-151.784 409.704,-164.858 425.224,-173.925"/>
<polygon fill="#90caf9" stroke="#90caf9" stroke-width="1.5" points="424.033,-176.266 431.873,-177.559 426.551,-171.659 424.033,-176.266"/>
<text text-anchor="middle" x="417.448" y="-140.8" font-family="Helvetica,sans-Serif" font-size="14.00">1.00</text>
</g>
<!-- A18&#45;&gt;A9 -->
<g id="edge25" class="edge"><title>A18&#45;&gt;A9</title>
<path fill="none" stroke="#90caf9" stroke-width="0.75" d="M470.044,-86.2084C481.939,-76.4382 498.804,-63.4427 514.948,-54 531.55,-44.2887 551.346,-35.6065 567.092,-29.3186"/>
<polygon fill="#90caf9" stroke="#90caf9" stroke-width="0.75" points="567.831,-30.9082 571.841,-27.4456 566.547,-27.6523 567.831,-30.9082"/>
<text text-anchor="middle" x="528.948" y="-57" font-family="Helvetica,sans-Serif" font-size="10.00"> &#160;&#160;0.00</text>
</g>
<!-- A18&#45;&gt;A18 -->
<g id="edge26" class="edge"><title>A18&#45;&gt;A18</title>
<path fill="none" stroke="#cfd8dc" stroke-width="1.8" d="M479.463,-108.41C490.47,-109.017 499.895,-106.547 499.895,-101 499.895,-96.3198 493.185,-93.8301 484.477,-93.5307"/>
<polygon fill="#cfd8dc" stroke="#cfd8dc" stroke-width="1.8" points="484.442,-91.7809 479.463,-93.5897 484.483,-95.2806 484.442,-91.7809"/>
<text text-anchor="middle" x="513.895" y="-98.5" font-family="Helvetica,sans-Serif" font-size="10.00"> &#160;&#160;0.00</text>
</g>
<!-- A19 -->
<g id="node17" class="node"><title>A19</title>
<ellipse fill="#76ff03" stroke="black" stroke-width="0" cx="1295.95" cy="-188" rx="27.8951" ry="18"/>
<text text-anchor="middle" x="1295.95" y="-184.3" font-family="Helvetica,sans-Serif" font-size="14.00" fill="#1a237e">A19</text>
</g>
<!-- A19&#45;&gt;A1 -->
<g id="edge27" class="edge"><title>A19&#45;&gt;A1</title>
<path fill="none" stroke="#90caf9" stroke-width="1.5" d="M1284.9,-171.357C1275.99,-159.972 1262.42,-145.174 1246.95,-137 1206.63,-115.705 1190.79,-127.278 1145.95,-119 1127.44,-115.582 1106.78,-111.645 1090.03,-108.421"/>
<polygon fill="#90caf9" stroke="#90caf9" stroke-width="1.5" points="1090.5,-105.837 1082.64,-106.994 1089.5,-110.992 1090.5,-105.837"/>
<text text-anchor="middle" x="1281.45" y="-140.8" font-family="Helvetica,sans-Serif" font-size="14.00">0.50</text>
</g>
<!-- A19&#45;&gt;A19 -->
<g id="edge29" class="edge"><title>A19&#45;&gt;A19</title>
<path fill="none" stroke="#cfd8dc" stroke-width="1.8" d="M1321.46,-195.781C1332.47,-196.418 1341.9,-193.824 1341.9,-188 1341.9,-183.086 1335.19,-180.472 1326.48,-180.157"/>
<polygon fill="#cfd8dc" stroke="#cfd8dc" stroke-width="1.8" points="1326.44,-178.407 1321.46,-180.219 1326.48,-181.907 1326.44,-178.407"/>
<text text-anchor="middle" x="1355.9" y="-185.5" font-family="Helvetica,sans-Serif" font-size="10.00"> &#160;&#160;0.00</text>
</g>
<!-- A19&#45;&gt;A20 -->
<g id="edge28" class="edge"><title>A19&#45;&gt;A20</title>
<path fill="none" stroke="#90caf9" stroke-width="0.75" d="M1300.15,-206.029C1301.47,-211.722 1302.87,-218.115 1303.95,-224 1305.6,-232.995 1307.07,-242.964 1308.23,-251.619"/>
<polygon fill="#90caf9" stroke="#90caf9" stroke-width="0.75" points="1306.53,-252.087 1308.91,-256.817 1310,-251.632 1306.53,-252.087"/>
<text text-anchor="middle" x="1319.95" y="-229" font-family="Helvetica,sans-Serif" font-size="10.00"> &#160;&#160;0.50</text>
</g>
<!-- A20&#45;&gt;A9 -->
<g id="edge32" class="edge"><title>A20&#45;&gt;A9</title>
<path fill="none" stroke="#90caf9" stroke-width="1.5" d="M1329.48,-261.472C1355.06,-242.516 1396.19,-205.034 1378.95,-170 1350.96,-113.131 1323.01,-110.601 1265.95,-83 1218.11,-59.8586 1202.46,-62.1505 1149.95,-54 954.776,-23.7078 717.114,-19.4791 629.509,-19.0025"/>
<polygon fill="#90caf9" stroke="#90caf9" stroke-width="1.5" points="629.504,-16.3776 621.992,-18.969 629.48,-21.6275 629.504,-16.3776"/>
<text text-anchor="middle" x="1382.45" y="-140.8" font-family="Helvetica,sans-Serif" font-size="14.00">0.25</text>
</g>
<!-- A20&#45;&gt;A19 -->
<g id="edge33" class="edge"><title>A20&#45;&gt;A19</title>
<path fill="none" stroke="#90caf9" stroke-width="0.75" d="M1291.34,-261.75C1283.8,-255.886 1276.03,-248.139 1271.95,-239 1267.32,-228.63 1272.05,-217.202 1278.5,-207.893"/>
<polygon fill="#90caf9" stroke="#90caf9" stroke-width="0.75" points="1279.98,-208.834 1281.55,-203.776 1277.17,-206.748 1279.98,-208.834"/>
<text text-anchor="middle" x="1285.95" y="-229" font-family="Helvetica,sans-Serif" font-size="10.00"> &#160;&#160;0.25</text>
</g>
<!-- A20&#45;&gt;A20 -->
<g id="edge34" class="edge"><title>A20&#45;&gt;A20</title>
<path fill="none" stroke="#cfd8dc" stroke-width="1.8" d="M1336.46,-282.781C1347.47,-283.418 1356.9,-280.824 1356.9,-275 1356.9,-270.086 1350.19,-267.472 1341.48,-267.157"/>
<polygon fill="#cfd8dc" stroke="#cfd8dc" stroke-width="1.8" points="1341.44,-265.407 1336.46,-267.219 1341.48,-268.907 1341.44,-265.407"/>
<text text-anchor="middle" x="1370.9" y="-272.5" font-family="Helvetica,sans-Serif" font-size="10.00"> &#160;&#160;0.00</text>
</g>
<!-- A2 -->
<g id="node19" class="node"><title>A2</title>
<ellipse fill="#76ff03" stroke="black" stroke-width="0" cx="908.948" cy="-188" rx="27" ry="18"/>
<text text-anchor="middle" x="908.948" y="-184.3" font-family="Helvetica,sans-Serif" font-size="14.00" fill="#1a237e">A2</text>
</g>
<!-- A2&#45;&gt;A1 -->
<g id="edge31" class="edge"><title>A2&#45;&gt;A1</title>
<path fill="none" stroke="#90caf9" stroke-width="0.75" d="M924.108,-172.954C936.347,-162.131 954.365,-147.319 971.948,-137 989.66,-126.605 1011.04,-117.816 1027.93,-111.646"/>
<polygon fill="#90caf9" stroke="#90caf9" stroke-width="0.75" points="1028.91,-113.155 1033.02,-109.816 1027.72,-109.862 1028.91,-113.155"/>
<text text-anchor="middle" x="985.948" y="-142" font-family="Helvetica,sans-Serif" font-size="10.00"> &#160;&#160;0.20</text>
</g>
<!-- A2&#45;&gt;A2 -->
<g id="edge30" class="edge"><title>A2&#45;&gt;A2</title>
<path fill="none" stroke="#90caf9" stroke-width="1.5" d="M933.48,-195.752C944.455,-196.49 953.948,-193.906 953.948,-188 953.948,-183.57 948.608,-181.009 941.308,-180.317"/>
<polygon fill="#90caf9" stroke="#90caf9" stroke-width="1.5" points="941.003,-177.69 933.48,-180.248 940.956,-182.939 941.003,-177.69"/>
<text text-anchor="middle" x="968.448" y="-184.3" font-family="Helvetica,sans-Serif" font-size="14.00">0.40</text>
</g>
<!-- A21 -->
<g id="node20" class="node"><title>A21</title>
<ellipse fill="#76ff03" stroke="black" stroke-width="0" cx="506.948" cy="-275" rx="27.8951" ry="18"/>
<text text-anchor="middle" x="506.948" y="-271.3" font-family="Helvetica,sans-Serif" font-size="14.00" fill="#1a237e">A21</text>
</g>
<!-- A21&#45;&gt;A8 -->
<g id="edge35" class="edge"><title>A21&#45;&gt;A8</title>
<path fill="none" stroke="#90caf9" stroke-width="1.5" d="M496.979,-258.012C488.762,-244.834 477.014,-225.993 467.868,-211.326"/>
<polygon fill="#90caf9" stroke="#90caf9" stroke-width="1.5" points="470.067,-209.891 463.872,-204.916 465.613,-212.669 470.067,-209.891"/>
<text text-anchor="middle" x="498.448" y="-227.8" font-family="Helvetica,sans-Serif" font-size="14.00">1.00</text>
</g>
<!-- A21&#45;&gt;A9 -->
<g id="edge36" class="edge"><title>A21&#45;&gt;A9</title>
<path fill="none" stroke="#90caf9" stroke-width="0.75" d="M514.557,-257.416C520.694,-243.759 529.356,-223.815 535.948,-206 557.734,-147.116 578.751,-76.0192 588.8,-40.8683"/>
<polygon fill="#90caf9" stroke="#90caf9" stroke-width="0.75" points="590.515,-41.2369 590.202,-35.9487 587.149,-40.2777 590.515,-41.2369"/>
<text text-anchor="middle" x="573.948" y="-142" font-family="Helvetica,sans-Serif" font-size="10.00"> &#160;&#160;0.00</text>
</g>
<!-- A21&#45;&gt;A21 -->
<g id="edge37" class="edge"><title>A21&#45;&gt;A21</title>
<path fill="none" stroke="#cfd8dc" stroke-width="1.8" d="M532.463,-282.781C543.47,-283.418 552.895,-280.824 552.895,-275 552.895,-270.086 546.185,-267.472 537.477,-267.157"/>
<polygon fill="#cfd8dc" stroke="#cfd8dc" stroke-width="1.8" points="537.441,-265.407 532.463,-267.219 537.484,-268.907 537.441,-265.407"/>
<text text-anchor="middle" x="566.895" y="-272.5" font-family="Helvetica,sans-Serif" font-size="10.00"> &#160;&#160;0.00</text>
</g>
<!-- A22 -->
<g id="node21" class="node"><title>A22</title>
<ellipse fill="#76ff03" stroke="black" stroke-width="0" cx="147.948" cy="-275" rx="27.8951" ry="18"/>
<text text-anchor="middle" x="147.948" y="-271.3" font-family="Helvetica,sans-Serif" font-size="14.00" fill="#1a237e">A22</text>
</g>
<!-- A22&#45;&gt;A8 -->
<g id="edge39" class="edge"><title>A22&#45;&gt;A8</title>
<path fill="none" stroke="#90caf9" stroke-width="0.75" d="M172.982,-266.77C207.084,-256.949 270.066,-238.906 323.948,-224 358.16,-214.535 397.534,-203.982 423.903,-196.963"/>
<polygon fill="#90caf9" stroke="#90caf9" stroke-width="0.75" points="424.616,-198.584 428.998,-195.608 423.716,-195.202 424.616,-198.584"/>
<text text-anchor="middle" x="337.948" y="-229" font-family="Helvetica,sans-Serif" font-size="10.00"> &#160;&#160;0.00</text>
</g>
<!-- A22&#45;&gt;A9 -->
<g id="edge38" class="edge"><title>A22&#45;&gt;A9</title>
<path fill="none" stroke="#90caf9" stroke-width="1.5" d="M162.291,-259.345C196.676,-224.849 287.604,-137.35 376.948,-83 405.367,-65.7115 414.312,-64.2838 445.948,-54 485.085,-41.2775 531.402,-31.1387 561.887,-25.1138"/>
<polygon fill="#90caf9" stroke="#90caf9" stroke-width="1.5" points="562.424,-27.6838 569.282,-23.6717 561.419,-22.5308 562.424,-27.6838"/>
<text text-anchor="middle" x="314.448" y="-140.8" font-family="Helvetica,sans-Serif" font-size="14.00">0.00</text>
</g>
<!-- A22&#45;&gt;A22 -->
<g id="edge40" class="edge"><title>A22&#45;&gt;A22</title>
<path fill="none" stroke="#cfd8dc" stroke-width="1.8" d="M173.463,-282.781C184.47,-283.418 193.895,-280.824 193.895,-275 193.895,-270.086 187.185,-267.472 178.477,-267.157"/>
<polygon fill="#cfd8dc" stroke="#cfd8dc" stroke-width="1.8" points="178.441,-265.407 173.463,-267.219 178.484,-268.907 178.441,-265.407"/>
<text text-anchor="middle" x="207.895" y="-272.5" font-family="Helvetica,sans-Serif" font-size="10.00"> &#160;&#160;0.00</text>
</g>
<!-- A23 -->
<g id="node22" class="node"><title>A23</title>
<ellipse fill="#76ff03" stroke="black" stroke-width="0" cx="523.948" cy="-449" rx="27.8951" ry="18"/>
<text text-anchor="middle" x="523.948" y="-445.3" font-family="Helvetica,sans-Serif" font-size="14.00" fill="#1a237e">A23</text>
</g>
<!-- A23&#45;&gt;A14 -->
<g id="edge41" class="edge"><title>A23&#45;&gt;A14</title>
<path fill="none" stroke="#90caf9" stroke-width="1.5" d="M549.176,-440.899C603.692,-425.555 732.449,-389.316 793.171,-372.225"/>
<polygon fill="#90caf9" stroke="#90caf9" stroke-width="1.5" points="794.07,-374.699 800.578,-370.14 792.647,-369.646 794.07,-374.699"/>
<text text-anchor="middle" x="708.448" y="-401.8" font-family="Helvetica,sans-Serif" font-size="14.00">0.33</text>
</g>
<!-- A23&#45;&gt;A16 -->
<g id="edge42" class="edge"><title>A23&#45;&gt;A16</title>
<path fill="none" stroke="#90caf9" stroke-width="0.75" d="M497.503,-442.937C420.321,-428.162 195.536,-385.128 111.839,-369.105"/>
<polygon fill="#90caf9" stroke="#90caf9" stroke-width="0.75" points="111.773,-367.311 106.534,-368.09 111.115,-370.749 111.773,-367.311"/>
<text text-anchor="middle" x="342.948" y="-403" font-family="Helvetica,sans-Serif" font-size="10.00"> &#160;&#160;0.33</text>
</g>
<!-- A23&#45;&gt;A23 -->
<g id="edge43" class="edge"><title>A23&#45;&gt;A23</title>
<path fill="none" stroke="#cfd8dc" stroke-width="1.8" d="M549.463,-456.41C560.47,-457.017 569.895,-454.547 569.895,-449 569.895,-444.32 563.185,-441.83 554.477,-441.531"/>
<polygon fill="#cfd8dc" stroke="#cfd8dc" stroke-width="1.8" points="554.442,-439.781 549.463,-441.59 554.483,-443.281 554.442,-439.781"/>
<text text-anchor="middle" x="583.895" y="-446.5" font-family="Helvetica,sans-Serif" font-size="10.00"> &#160;&#160;0.33</text>
</g>
<!-- A24 -->
<g id="node23" class="node"><title>A24</title>
<ellipse fill="#76ff03" stroke="black" stroke-width="0" cx="267.948" cy="-275" rx="27.8951" ry="18"/>
<text text-anchor="middle" x="267.948" y="-271.3" font-family="Helvetica,sans-Serif" font-size="14.00" fill="#1a237e">A24</text>
</g>
<!-- A24&#45;&gt;A8 -->
<g id="edge44" class="edge"><title>A24&#45;&gt;A8</title>
<path fill="none" stroke="#90caf9" stroke-width="1.5" d="M291.786,-265.356C309.667,-258.671 334.627,-248.912 355.948,-239 368.749,-233.048 371.41,-230.491 383.948,-224 397.691,-216.884 413.063,-209.172 425.893,-202.802"/>
<polygon fill="#90caf9" stroke="#90caf9" stroke-width="1.5" points="427.178,-205.095 432.733,-199.414 424.847,-200.391 427.178,-205.095"/>
<text text-anchor="middle" x="398.448" y="-227.8" font-family="Helvetica,sans-Serif" font-size="14.00">1.00</text>
</g>
<!-- A24&#45;&gt;A9 -->
<g id="edge45" class="edge"><title>A24&#45;&gt;A9</title>
<path fill="none" stroke="#90caf9" stroke-width="0.75" d="M291.261,-264.846C303.557,-259.02 318.094,-250.408 327.948,-239 359.886,-202.026 343.226,-178.54 368.948,-137 385.852,-109.699 390.409,-101.078 416.948,-83 463.123,-51.5459 526.541,-33.6326 563.889,-25.1545"/>
<polygon fill="#90caf9" stroke="#90caf9" stroke-width="0.75" points="564.704,-26.7659 569.205,-23.9716 563.944,-23.3495 564.704,-26.7659"/>
<text text-anchor="middle" x="382.948" y="-142" font-family="Helvetica,sans-Serif" font-size="10.00"> &#160;&#160;0.00</text>
</g>
<!-- A24&#45;&gt;A24 -->
<g id="edge46" class="edge"><title>A24&#45;&gt;A24</title>
<path fill="none" stroke="#cfd8dc" stroke-width="1.8" d="M293.463,-282.781C304.47,-283.418 313.895,-280.824 313.895,-275 313.895,-270.086 307.185,-267.472 298.477,-267.157"/>
<polygon fill="#cfd8dc" stroke="#cfd8dc" stroke-width="1.8" points="298.441,-265.407 293.463,-267.219 298.484,-268.907 298.441,-265.407"/>
<text text-anchor="middle" x="327.895" y="-272.5" font-family="Helvetica,sans-Serif" font-size="10.00"> &#160;&#160;0.00</text>
</g>
<!-- A25&#45;&gt;A7 -->
<g id="edge47" class="edge"><title>A25&#45;&gt;A7</title>
<path fill="none" stroke="#90caf9" stroke-width="1.5" d="M1181.74,-119.175C1180.87,-131.497 1179.68,-148.289 1178.71,-162.081"/>
<polygon fill="#90caf9" stroke="#90caf9" stroke-width="1.5" points="1176.07,-162.133 1178.16,-169.799 1181.31,-162.502 1176.07,-162.133"/>
<text text-anchor="middle" x="1195.45" y="-140.8" font-family="Helvetica,sans-Serif" font-size="14.00">1.00</text>
</g>
<!-- A25&#45;&gt;A9 -->
<g id="edge48" class="edge"><title>A25&#45;&gt;A9</title>
<path fill="none" stroke="#90caf9" stroke-width="0.75" d="M1163.56,-88.0159C1144.75,-77.0474 1115,-61.4293 1086.95,-54 999.612,-30.867 721.983,-22.09 627.1,-19.7196"/>
<polygon fill="#90caf9" stroke="#90caf9" stroke-width="0.75" points="626.959,-17.9657 621.917,-19.5919 626.873,-21.4646 626.959,-17.9657"/>
<text text-anchor="middle" x="1131.95" y="-57" font-family="Helvetica,sans-Serif" font-size="10.00"> &#160;&#160;0.00</text>
</g>
<!-- A25&#45;&gt;A25 -->
<g id="edge49" class="edge"><title>A25&#45;&gt;A25</title>
<path fill="none" stroke="#cfd8dc" stroke-width="1.8" d="M1208.46,-108.41C1219.47,-109.017 1228.9,-106.547 1228.9,-101 1228.9,-96.3198 1222.19,-93.8301 1213.48,-93.5307"/>
<polygon fill="#cfd8dc" stroke="#cfd8dc" stroke-width="1.8" points="1213.44,-91.7809 1208.46,-93.5897 1213.48,-95.2806 1213.44,-91.7809"/>
<text text-anchor="middle" x="1242.9" y="-98.5" font-family="Helvetica,sans-Serif" font-size="10.00"> &#160;&#160;0.00</text>
</g>
<!-- A27 -->
<g id="node25" class="node"><title>A27</title>
<ellipse fill="#76ff03" stroke="black" stroke-width="0" cx="1091.95" cy="-532" rx="27.8951" ry="18"/>
<text text-anchor="middle" x="1091.95" y="-528.3" font-family="Helvetica,sans-Serif" font-size="14.00" fill="#1a237e">A27</text>
</g>
<!-- A27&#45;&gt;A10 -->
<g id="edge53" class="edge"><title>A27&#45;&gt;A10</title>
<path fill="none" stroke="#90caf9" stroke-width="0.75" d="M1099.2,-514.217C1104.59,-501.753 1111.97,-484.663 1117.77,-471.246"/>
<polygon fill="#90caf9" stroke="#90caf9" stroke-width="0.75" points="1119.45,-471.769 1119.82,-466.485 1116.23,-470.38 1119.45,-471.769"/>
<text text-anchor="middle" x="1125.95" y="-488" font-family="Helvetica,sans-Serif" font-size="10.00"> &#160;&#160;0.50</text>
</g>
<!-- A27&#45;&gt;A7 -->
<g id="edge52" class="edge"><title>A27&#45;&gt;A7</title>
<path fill="none" stroke="#90caf9" stroke-width="1.5" d="M1084.74,-514.6C1078.33,-498.482 1069.95,-473.024 1069.95,-450 1069.95,-450 1069.95,-450 1069.95,-274 1069.95,-253.653 1117.98,-222.412 1149.69,-204.011"/>
<polygon fill="#90caf9" stroke="#90caf9" stroke-width="1.5" points="1151.37,-206.072 1156.57,-200.066 1148.76,-201.517 1151.37,-206.072"/>
<text text-anchor="middle" x="1084.45" y="-358.3" font-family="Helvetica,sans-Serif" font-size="14.00">0.50</text>
</g>
<!-- A27&#45;&gt;A27 -->
<g id="edge54" class="edge"><title>A27&#45;&gt;A27</title>
<path fill="none" stroke="#cfd8dc" stroke-width="1.8" d="M1117.46,-539.41C1128.47,-540.017 1137.9,-537.547 1137.9,-532 1137.9,-527.32 1131.19,-524.83 1122.48,-524.531"/>
<polygon fill="#cfd8dc" stroke="#cfd8dc" stroke-width="1.8" points="1122.44,-522.781 1117.46,-524.59 1122.48,-526.281 1122.44,-522.781"/>
<text text-anchor="middle" x="1151.9" y="-529.5" font-family="Helvetica,sans-Serif" font-size="10.00"> &#160;&#160;0.00</text>
</g>
<!-- A28 -->
<g id="node26" class="node"><title>A28</title>
<ellipse fill="#76ff03" stroke="black" stroke-width="0" cx="902.948" cy="-275" rx="27.8951" ry="18"/>
<text text-anchor="middle" x="902.948" y="-271.3" font-family="Helvetica,sans-Serif" font-size="14.00" fill="#1a237e">A28</text>
</g>
<!-- A28&#45;&gt;A2 -->
<g id="edge56" class="edge"><title>A28&#45;&gt;A2</title>
<path fill="none" stroke="#90caf9" stroke-width="0.75" d="M904.162,-256.799C905.089,-243.665 906.374,-225.462 907.379,-211.225"/>
<polygon fill="#90caf9" stroke="#90caf9" stroke-width="0.75" points="909.129,-211.286 907.735,-206.175 905.637,-211.04 909.129,-211.286"/>
<text text-anchor="middle" x="920.948" y="-229" font-family="Helvetica,sans-Serif" font-size="10.00"> &#160;&#160;0.33</text>
</g>
<!-- A28&#45;&gt;A28 -->
<g id="edge55" class="edge"><title>A28&#45;&gt;A28</title>
<path fill="none" stroke="#90caf9" stroke-width="1.5" d="M928.463,-282.781C939.47,-283.418 948.895,-280.824 948.895,-275 948.895,-270.632 943.594,-268.081 936.299,-267.347"/>
<polygon fill="#90caf9" stroke="#90caf9" stroke-width="1.5" points="936.004,-264.717 928.463,-267.219 935.919,-269.966 936.004,-264.717"/>
<text text-anchor="middle" x="963.395" y="-271.3" font-family="Helvetica,sans-Serif" font-size="14.00">0.67</text>
</g>
<!-- A3 -->
<g id="node27" class="node"><title>A3</title>
<ellipse fill="#76ff03" stroke="black" stroke-width="0" cx="1429.95" cy="-275" rx="27" ry="18"/>
<text text-anchor="middle" x="1429.95" y="-271.3" font-family="Helvetica,sans-Serif" font-size="14.00" fill="#1a237e">A3</text>
</g>
<!-- A3&#45;&gt;A1 -->
<g id="edge57" class="edge"><title>A3&#45;&gt;A1</title>
<path fill="none" stroke="#90caf9" stroke-width="1.5" d="M1436.44,-257.495C1446.51,-228.828 1461.72,-169.774 1430.95,-137 1409.23,-113.867 1177.43,-122.984 1145.95,-119 1127.14,-116.619 1106.31,-112.711 1089.53,-109.242"/>
<polygon fill="#90caf9" stroke="#90caf9" stroke-width="1.5" points="1090.01,-106.661 1082.13,-107.686 1088.93,-111.798 1090.01,-106.661"/>
<text text-anchor="middle" x="1463.45" y="-184.3" font-family="Helvetica,sans-Serif" font-size="14.00">0.50</text>
</g>
<!-- A3&#45;&gt;A7 -->
<g id="edge58" class="edge"><title>A3&#45;&gt;A7</title>
<path fill="none" stroke="#90caf9" stroke-width="0.75" d="M1411.32,-261.813C1393.24,-250.498 1364.7,-233.946 1337.95,-224 1331.82,-221.72 1252.22,-204.824 1207.3,-195.367"/>
<polygon fill="#90caf9" stroke="#90caf9" stroke-width="0.75" points="1207.52,-193.624 1202.26,-194.307 1206.8,-197.05 1207.52,-193.624"/>
<text text-anchor="middle" x="1382.95" y="-229" font-family="Helvetica,sans-Serif" font-size="10.00"> &#160;&#160;0.50</text>
</g>
<!-- A3&#45;&gt;A3 -->
<g id="edge59" class="edge"><title>A3&#45;&gt;A3</title>
<path fill="none" stroke="#cfd8dc" stroke-width="1.8" d="M1454.48,-282.752C1465.46,-283.49 1474.95,-280.906 1474.95,-275 1474.95,-270.017 1468.19,-267.398 1459.49,-267.145"/>
<polygon fill="#cfd8dc" stroke="#cfd8dc" stroke-width="1.8" points="1459.44,-265.396 1454.48,-267.248 1459.51,-268.895 1459.44,-265.396"/>
<text text-anchor="middle" x="1488.95" y="-272.5" font-family="Helvetica,sans-Serif" font-size="10.00"> &#160;&#160;0.00</text>
</g>
<!-- A5 -->
<g id="node28" class="node"><title>A5</title>
<ellipse fill="#76ff03" stroke="black" stroke-width="0" cx="745.948" cy="-275" rx="27" ry="18"/>
<text text-anchor="middle" x="745.948" y="-271.3" font-family="Helvetica,sans-Serif" font-size="14.00" fill="#1a237e">A5</text>
</g>
<!-- A5&#45;&gt;A1 -->
<g id="edge62" class="edge"><title>A5&#45;&gt;A1</title>
<path fill="none" stroke="#90caf9" stroke-width="1.5" d="M750.804,-257C760.568,-226.421 785.783,-162.914 832.948,-137 864.923,-119.431 968.053,-108.954 1022.52,-104.51"/>
<polygon fill="#90caf9" stroke="#90caf9" stroke-width="1.5" points="1022.92,-107.111 1030.18,-103.898 1022.5,-101.878 1022.92,-107.111"/>
<text text-anchor="middle" x="809.448" y="-184.3" font-family="Helvetica,sans-Serif" font-size="14.00">1.00</text>
</g>
<!-- A5&#45;&gt;A8 -->
<g id="edge63" class="edge"><title>A5&#45;&gt;A8</title>
<path fill="none" stroke="#90caf9" stroke-width="0.75" d="M724.9,-263.28C720.058,-261.034 714.881,-258.803 709.948,-257 630.561,-227.985 533.204,-205.581 484.604,-195.252"/>
<polygon fill="#90caf9" stroke="#90caf9" stroke-width="0.75" points="484.743,-193.492 479.489,-194.171 484.019,-196.917 484.743,-193.492"/>
<text text-anchor="middle" x="668.948" y="-229" font-family="Helvetica,sans-Serif" font-size="10.00"> &#160;&#160;0.00</text>
</g>
<!-- A5&#45;&gt;A5 -->
<g id="edge64" class="edge"><title>A5&#45;&gt;A5</title>
<path fill="none" stroke="#cfd8dc" stroke-width="1.8" d="M770.48,-282.752C781.455,-283.49 790.948,-280.906 790.948,-275 790.948,-270.017 784.19,-267.398 775.486,-267.145"/>
<polygon fill="#cfd8dc" stroke="#cfd8dc" stroke-width="1.8" points="775.443,-265.396 770.48,-267.248 775.515,-268.895 775.443,-265.396"/>
<text text-anchor="middle" x="804.948" y="-272.5" font-family="Helvetica,sans-Serif" font-size="10.00"> &#160;&#160;0.00</text>
</g>
</g>
</svg>